<svg width="124" height="55" viewBox="0 0 124 55" fill="none" xmlns="http://www.w3.org/2000/svg">
<path d="M5.59202 0.688237V16.9191H29.9173V0.688237H35.5093V38.3118H29.9173V22.0809H5.59202V38.3118H0V0.688237H5.59202Z" fill="white"/>
<path d="M68.4092 0.688237C72.51 0.688237 75.7534 1.70147 78.1393 3.72794C80.5252 5.71618 81.7182 8.41177 81.7182 11.8147V12.5029C81.7182 15.9059 80.5252 18.6206 78.1393 20.6471C75.7534 22.6353 72.51 23.6294 68.4092 23.6294H51.4095V38.3118H45.8174V0.688237H68.4092ZM68.2974 18.525C70.7578 18.525 72.6591 18.0088 74.0012 16.9765C75.3806 15.9059 76.0703 14.4147 76.0703 12.5029V11.8147C76.0703 9.90294 75.3806 8.43088 74.0012 7.39853C72.6591 6.32794 70.7578 5.79265 68.2974 5.79265H51.4095V18.525H68.2974Z" fill="white"/>
<path d="M106.497 39C100.569 39 96.0772 37.9485 93.0202 35.8456C90.0005 33.7044 88.4907 30.5882 88.4907 26.4971V25.9235H94.0827V26.4971C94.0827 31.3912 98.314 33.8382 106.777 33.8382C110.542 33.8382 113.412 33.3603 115.388 32.4044C117.364 31.4485 118.352 30.0338 118.352 28.1603V27.7015C118.352 26.0956 117.718 24.8912 116.451 24.0882C115.221 23.2853 113.021 22.6735 109.852 22.2529L101.52 21.1059C97.4565 20.5706 94.3996 19.5 92.3492 17.8941C90.336 16.25 89.3295 14.0515 89.3295 11.2985V10.725C89.3295 7.3603 90.7834 4.74118 93.6912 2.86765C96.5991 0.955883 100.7 0 105.994 0C111.623 0 115.892 1.03235 118.799 3.09706C121.745 5.16177 123.217 8.16324 123.217 12.1015V12.675H117.681V12.1015C117.681 7.475 113.785 5.16177 105.994 5.16177C102.415 5.16177 99.6747 5.63971 97.7734 6.59559C95.9094 7.51324 94.9774 8.85147 94.9774 10.6103V11.0691C94.9774 12.4838 95.5739 13.5735 96.7669 14.3382C97.9598 15.1029 99.9543 15.6765 102.75 16.0588L111.138 17.1485C115.575 17.7221 118.818 18.8309 120.868 20.475C122.956 22.1191 124 24.4515 124 27.4721V28.0456C124 31.525 122.49 34.2206 119.47 36.1324C116.451 38.0441 112.126 39 106.497 39Z" fill="white"/>
<path d="M5.27783 48.116H6.22487V54.884H5.27783V51.8191H0.947049V54.884H0V48.116H0.947049V51.0552H5.27783V48.116Z" fill="white"/>
<path d="M14.4082 48.116L11.3204 52.1381V54.884H10.3734V52.1285L7.29547 48.116H8.41022L10.8568 51.413L13.323 48.116H14.4082Z" fill="white"/>
<path d="M18.9542 48.116C19.6579 48.116 20.2333 48.2901 20.6806 48.6381C21.1278 48.9797 21.3514 49.4922 21.3514 50.1754C21.3514 50.8587 21.1343 51.3679 20.7003 51.703C20.2662 52.0318 19.6875 52.1961 18.964 52.1961H16.4287V54.884H15.4816V48.116H18.9542ZM18.8752 51.4807C19.3422 51.4807 19.7138 51.3711 19.99 51.1519C20.2662 50.9263 20.4043 50.6008 20.4043 50.1754C20.4043 49.75 20.2662 49.4277 19.99 49.2086C19.7138 48.9894 19.3422 48.8798 18.8752 48.8798H16.4287V51.4807H18.8752Z" fill="white"/>
<path d="M23.6156 54.1492H28.1634V54.884H22.6685V48.116H27.9957V48.8508H23.6156V51.0939H27.0881V51.7901H23.6156V54.1492Z" fill="white"/>
<path d="M34.5891 54.884L32.2313 52.1188H30.4556V54.884H29.5086V48.116H33.0699C33.7736 48.116 34.3491 48.2868 34.7963 48.6285C35.2435 48.9636 35.4671 49.4664 35.4671 50.1367C35.4671 50.7684 35.2665 51.2486 34.8653 51.5773C34.4707 51.8996 33.9446 52.0769 33.2869 52.1091L35.7729 54.884H34.5891ZM30.4556 48.8605V51.4033H32.991C33.4513 51.4033 33.8196 51.2937 34.0958 51.0746C34.3786 50.8554 34.52 50.5428 34.52 50.1367C34.52 49.7242 34.3786 49.4084 34.0958 49.1892C33.8196 48.9701 33.4513 48.8605 32.991 48.8605H30.4556Z" fill="white"/>
<path d="M43.087 48.116C43.7907 48.116 44.3662 48.2901 44.8134 48.6381C45.2606 48.9797 45.4843 49.4922 45.4843 50.1754C45.4843 50.8587 45.2672 51.3679 44.8332 51.703C44.3991 52.0318 43.8203 52.1961 43.0969 52.1961H40.5616V54.884H39.6145V48.116H43.087ZM43.0081 51.4807C43.4751 51.4807 43.8466 51.3711 44.1229 51.1519C44.3991 50.9263 44.5372 50.6008 44.5372 50.1754C44.5372 49.75 44.3991 49.4277 44.1229 49.2086C43.8466 48.9894 43.4751 48.8798 43.0081 48.8798H40.5616V51.4807H43.0081Z" fill="white"/>
<path d="M47.3045 54.0331C46.6863 53.3886 46.3772 52.5442 46.3772 51.5C46.3772 50.4558 46.6863 49.6114 47.3045 48.9669C47.9293 48.3223 48.8106 48 49.9484 48C51.0861 48 51.9674 48.3223 52.5922 48.9669C53.217 49.6114 53.5294 50.4558 53.5294 51.5C53.5294 52.5442 53.217 53.3886 52.5922 54.0331C51.9674 54.6777 51.0861 55 49.9484 55C48.8106 55 47.9293 54.6777 47.3045 54.0331ZM48.0148 49.5276C47.5544 50.0368 47.3242 50.6943 47.3242 51.5C47.3242 52.3057 47.5544 52.9664 48.0148 53.482C48.4752 53.9913 49.1197 54.2459 49.9484 54.2459C50.7836 54.2459 51.4314 53.9913 51.8918 53.482C52.3522 52.9664 52.5823 52.3057 52.5823 51.5C52.5823 50.6943 52.3522 50.0368 51.8918 49.5276C51.4314 49.012 50.7836 48.7541 49.9484 48.7541C49.1197 48.7541 48.4752 49.012 48.0148 49.5276Z" fill="white"/>
<path d="M63.5791 48.116H64.5754L62.484 54.884H61.0635L59.347 48.7541L57.6008 54.884H56.1704L54.1086 48.116H55.1346L56.93 54.2459L58.6761 48.116H60.0276L61.7639 54.2459L63.5791 48.116Z" fill="white"/>
<path d="M66.6983 54.1492H71.2461V54.884H65.7512V48.116H71.0784V48.8508H66.6983V51.0939H70.1708V51.7901H66.6983V54.1492Z" fill="white"/>
<path d="M77.6718 54.884L75.3141 52.1188H73.5384V54.884H72.5913V48.116H76.1526C76.8563 48.116 77.4318 48.2868 77.879 48.6285C78.3262 48.9636 78.5498 49.4664 78.5498 50.1367C78.5498 50.7684 78.3492 51.2486 77.9481 51.5773C77.5534 51.8996 77.0273 52.0769 76.3696 52.1091L78.8556 54.884H77.6718ZM73.5384 48.8605V51.4033H76.0737C76.534 51.4033 76.9023 51.2937 77.1786 51.0746C77.4614 50.8554 77.6028 50.5428 77.6028 50.1367C77.6028 49.7242 77.4614 49.4084 77.1786 49.1892C76.9023 48.9701 76.534 48.8605 76.0737 48.8605H73.5384Z" fill="white"/>
<path d="M83.0327 52.7762C83.059 53.2468 83.2595 53.6174 83.6344 53.8881C84.0159 54.1524 84.5617 54.2845 85.272 54.2845C85.8442 54.2845 86.321 54.1943 86.7025 54.0138C87.0905 53.8333 87.2845 53.5529 87.2845 53.1727C87.2845 52.9084 87.1793 52.6892 86.9688 52.5152C86.7584 52.3412 86.4164 52.1897 85.9429 52.0608L84.1573 51.5967C83.0063 51.2937 82.4309 50.704 82.4309 49.8273C82.4309 49.2215 82.6775 48.767 83.1708 48.4641C83.6706 48.1547 84.3053 48 85.0747 48C85.91 48 86.5874 48.174 87.1069 48.5221C87.6331 48.8702 87.9257 49.3568 87.9849 49.982L87.0971 50.0304C87.0642 49.6372 86.8669 49.3214 86.5052 49.0829C86.1434 48.8379 85.6601 48.7155 85.055 48.7155C84.542 48.7155 84.131 48.8089 83.8219 48.9959C83.5193 49.1763 83.3681 49.4342 83.3681 49.7693C83.3681 50.2785 83.7824 50.6427 84.6111 50.8619L86.3572 51.3163C86.9951 51.4774 87.4654 51.6998 87.7679 51.9834C88.077 52.267 88.2316 52.6409 88.2316 53.105C88.2316 53.7366 87.9685 54.2104 87.4424 54.5262C86.9162 54.8421 86.1928 55 85.272 55C84.2855 55 83.5292 54.8131 83.0031 54.4392C82.4769 54.0654 82.1908 53.5239 82.1448 52.8149L83.0327 52.7762Z" fill="white"/>
<path d="M90.4843 54.1492H95.0322V54.884H89.5373V48.116H94.8644V48.8508H90.4843V51.0939H93.9569V51.7901H90.4843V54.1492Z" fill="white"/>
<path d="M101.458 54.884L99.1001 52.1188H97.3244V54.884H96.3774V48.116H99.9387C100.642 48.116 101.218 48.2868 101.665 48.6285C102.112 48.9636 102.336 49.4664 102.336 50.1367C102.336 50.7684 102.135 51.2486 101.734 51.5773C101.34 51.8996 100.813 52.0769 100.156 52.1091L102.642 54.884H101.458ZM97.3244 48.8605V51.4033H99.8597C100.32 51.4033 100.688 51.2937 100.965 51.0746C101.247 50.8554 101.389 50.5428 101.389 50.1367C101.389 49.7242 101.247 49.4084 100.965 49.1892C100.688 48.9701 100.32 48.8605 99.8597 48.8605H97.3244Z" fill="white"/>
<path d="M108.773 48.116H109.76L106.998 54.884H105.617L102.874 48.116H103.89L106.327 54.3715L108.773 48.116Z" fill="white"/>
<path d="M111.843 54.1492H116.39V54.884H110.896V48.116H116.223V48.8508H111.843V51.0939H115.315V51.7901H111.843V54.1492Z" fill="white"/>
<path d="M122.816 54.884L120.458 52.1188H118.683V54.884H117.736V48.116H121.297C122.001 48.116 122.576 48.2868 123.023 48.6285C123.471 48.9636 123.694 49.4664 123.694 50.1367C123.694 50.7684 123.494 51.2486 123.092 51.5773C122.698 51.8996 122.172 52.0769 121.514 52.1091L124 54.884H122.816ZM118.683 48.8605V51.4033H121.218C121.678 51.4033 122.047 51.2937 122.323 51.0746C122.606 50.8554 122.747 50.5428 122.747 50.1367C122.747 49.7242 122.606 49.4084 122.323 49.1892C122.047 48.9701 121.678 48.8605 121.218 48.8605H118.683Z" fill="white"/>
</svg>
